<?xml version="1.0" encoding="utf-8"?>
<!-- Generator: Adobe Illustrator 17.0.2, SVG Export Plug-In . SVG Version: 6.00 Build 0)  -->
<!DOCTYPE svg PUBLIC "-//W3C//DTD SVG 1.1//EN" "http://www.w3.org/Graphics/SVG/1.1/DTD/svg11.dtd">
<svg version="1.1" id="Layer_1" xmlns="http://www.w3.org/2000/svg" xmlns:xlink="http://www.w3.org/1999/xlink" x="0px" y="0px"
	 width="792px" height="612px" viewBox="0 0 792 612" enable-background="new 0 0 792 612" xml:space="preserve">
<path fill="#EE6047" d="M513.768,437.551l2.703,0.01c-0.514-0.024-1.033-0.054-1.547-0.078
	C514.532,437.507,514.155,437.531,513.768,437.551z"/>
<g>
	<polygon fill="#EE6047" points="390.893,135.09 358.913,135.007 358.859,156.334 372.225,156.368 372.186,169.583 377.444,169.593 
		377.478,156.378 390.835,156.417 	"/>
	<path fill="#EE6047" d="M396.749,130.459l-43.658-0.118c-1.748-0.005-3.153-1.43-3.148-3.163c0.005-1.738,1.42-3.158,3.163-3.153
		l43.658,0.118c1.733,0.005,3.153,1.43,3.148,3.163C399.907,129.049,398.482,130.464,396.749,130.459L396.749,130.459z"/>
	<path fill="#EE6047" d="M396.039,180.912l-43.658-0.113c-1.738-0.005-3.153-1.42-3.148-3.168c0.005-1.733,1.43-3.138,3.163-3.133
		l43.658,0.113c1.748,0.005,3.158,1.42,3.153,3.153C399.202,179.512,397.787,180.917,396.039,180.912L396.039,180.912z"/>
	<path fill="#EE6047" d="M350.169,175.404l-41.983,33.684c-1.239,1.219-1.244,3.226-0.01,4.46c0.607,0.612,1.42,0.92,2.228,0.92
		c0.808,0,1.606-0.304,2.233-0.911l41.983-33.684c1.239-1.229,1.244-3.226,0.01-4.46C353.4,174.18,351.402,174.17,350.169,175.404z"
		/>
	<path fill="#EE6047" d="M440.999,210.357l-42.718-34.825c-1.229-1.239-3.222-1.244-4.46-0.01c-1.234,1.224-1.239,3.222-0.01,4.46
		l42.723,34.825c0.617,0.612,1.43,0.92,2.223,0.92c0.813,0,1.621-0.304,2.237-0.911
		C442.223,213.588,442.233,211.595,440.999,210.357z"/>
</g>
<g>
	<path fill="#EE6047" d="M540.838,461.047c-27.883-0.073-50.507-22.815-50.434-50.698c0.073-27.883,22.815-50.507,50.698-50.434
		c27.883,0.073,50.502,22.82,50.434,50.703C591.463,438.5,568.721,461.125,540.838,461.047L540.838,461.047z M541.059,377.937
		c-17.944-0.049-32.578,14.512-32.627,32.456c-0.049,17.954,14.512,32.588,32.456,32.637s32.593-14.507,32.642-32.46
		C573.578,392.625,559.003,377.986,541.059,377.937L541.059,377.937z"/>
	<path fill="#EE6047" d="M264.244,460.312c-27.883-0.073-50.507-22.815-50.434-50.698s22.82-50.507,50.698-50.439
		c27.883,0.078,50.507,22.825,50.434,50.708S292.126,460.386,264.244,460.312L264.244,460.312z M264.464,377.198
		c-17.954-0.049-32.593,14.517-32.642,32.46c-0.049,17.954,14.512,32.588,32.465,32.637c17.944,0.049,32.583-14.507,32.632-32.46
		C296.969,391.891,282.408,377.247,264.464,377.198L264.464,377.198z"/>
</g>
<g>
	<g>
		<defs>
			<path id="SVGID_1_" d="M399.413,403.993h0.965c4.504,0.024,8.965,0.117,13.268,0.215c4.401,0.093,8.558,0.181,12.641,0.196
				c32.211,0.088,49.175-5.753,52.475-37.841l0.47-6.36c0.783-27.99,0.118-63.628-12.093-91.173
				c-10.536-23.716-36.23-35.3-78.547-35.413c-6.732-0.02-13.988,0.245-22.169,0.798c-27.457,1.875-40.882,14.752-55.266,52.94
				c-6.203,16.485,0.299,47.477,17.405,82.904l0.279,0.597c3.603,8.215,8.588,18.218,15.29,22.708
				c14.291,9.567,29.856,10.38,47.256,10.428c1.327,0.005,2.654-0.005,3.976-0.005C396.715,403.993,398.061,403.989,399.413,403.993
				L399.413,403.993z"/>
		</defs>
		<use xlink:href="#SVGID_1_"  overflow="visible" fill="#EE6047"/>
		<clipPath id="SVGID_2_">
			<use xlink:href="#SVGID_1_"  overflow="visible"/>
		</clipPath>
		<circle clip-path="url(#SVGID_2_)" fill="#EE6047" cx="336.494" cy="255.684" r="27.486"/>
	</g>
</g>
<path fill="#EE6047" d="M328.558,370.26c8.216,18.438,19.055,29.097,39.604,32.338c16.916,2.693,34.825,1.449,51.922,1.733
	c13.611,0.23,29.361,0.92,41.714-5.861c11.687-6.414,15.672-19.427,16.96-31.912c1.503-20.299,1.087-41.107-1.821-61.264
	l-168.06-0.45C309.395,322.01,316.215,344.698,328.558,370.26"/>
<path fill="#EE6047" d="M600.814,374.578c-4.788-62.708-75.423-123.516-125.724-154.66
	c-85.611-53.004-227.958-20.157-267.473,74.341c-13.004,31.099-42.595,95.82-4.563,134.909c2.879,2.889,5.699,5.307,8.935,7.584
	l4.426,0.015c-4.543-8.034-7.138-17.293-7.109-27.163c0.083-30.36,24.847-54.997,55.217-54.923
	c30.36,0.083,54.997,24.852,54.918,55.212c-0.024,9.87-2.663,19.119-7.251,27.124l180.819,0.485
	c-4.534-8.034-7.138-17.293-7.109-27.163c0.083-30.36,24.862-54.997,55.222-54.918c30.306,0.078,54.928,24.769,54.928,55.065
	C600.168,401.859,602.014,390.236,600.814,374.578z M488.241,360.571l-0.02,0.201l-0.495,6.639
	c-4.343,42.585-32.74,46.081-61.459,46.003c-0.01,0-0.01,0-0.01,0c-4.167-0.015-8.367-0.103-12.803-0.201
	c-4.284-0.093-8.695-0.186-13.116-0.211h-0.95c-1.337-0.005-2.673-0.01-4.015-0.005c-19.599-0.005-38.693-0.191-56.25-11.951
	c-8.573-5.738-14.169-16.612-18.497-26.497l-0.186-0.377c-8.72-18.052-27.893-62.963-17.714-89.979
	c13.317-35.393,27.917-56.363,63.07-58.767c8.402-0.578,15.868-0.837,22.815-0.818c46.248,0.122,74.625,13.459,86.747,40.779
	C488.324,294.617,489.053,331.611,488.241,360.571z"/>
<path fill="#EE6047" d="M365.341,117.083c0.015-5.312,4.333-9.606,9.64-9.591c5.302,0.01,9.596,4.328,9.586,9.64L365.341,117.083z"
	/>
<path fill="#EE6047" d="M403.917,117.186l-9.014-0.024c0.029-11.006-8.896-19.985-19.892-20.015
	c-11.011-0.029-19.976,8.901-20.005,19.907l-9.014-0.024c0.044-15.976,13.067-28.93,29.043-28.886
	C391.006,88.182,403.961,101.205,403.917,117.186L403.917,117.186z"/>
<path fill="#EE6047" d="M429.782,117.112l-9.004-0.024c0.069-25.258-20.436-45.871-45.704-45.934
	c-25.263-0.069-45.88,20.431-45.949,45.694l-9.014-0.024c0.078-30.228,24.754-54.762,54.987-54.679
	C405.332,62.218,429.866,86.884,429.782,117.112L429.782,117.112z"/>
<path fill="#EE6047" d="M455.663,117.054l-9.014-0.024c0.103-39.521-31.976-71.77-71.501-71.873
	c-39.535-0.103-71.775,31.971-71.883,71.496l-9.014-0.024c0.118-44.495,36.416-80.603,80.921-80.48
	C419.672,36.255,455.78,72.559,455.663,117.054L455.663,117.054z"/>
<text transform="matrix(1 0 0 1 144.1991 656.0383)" font-family="'HelveticaNeue-Bold'" font-size="24.48">Created by James Mayle</text>
<text transform="matrix(1 0 0 1 144.1991 680.5193)" font-family="'HelveticaNeue-Bold'" font-size="24.48">from the Noun Project</text>
</svg>
