<?xml version="1.0" encoding="utf-8"?>
<!-- Generator: Adobe Illustrator 17.0.2, SVG Export Plug-In . SVG Version: 6.00 Build 0)  -->
<!DOCTYPE svg PUBLIC "-//W3C//DTD SVG 1.1//EN" "http://www.w3.org/Graphics/SVG/1.1/DTD/svg11.dtd">
<svg version="1.1" id="Layer_1" xmlns="http://www.w3.org/2000/svg" xmlns:xlink="http://www.w3.org/1999/xlink" x="0px" y="0px"
	 width="792px" height="612px" viewBox="0 0 792 612" enable-background="new 0 0 792 612" xml:space="preserve">
<path fill="#EE6047" d="M192.816,78.826c5.875,0,10.771-1.469,15.667-4.406c16.157,11.261,70.992,50.429,79.805,55.814
	c7.834,4.896,14.688,9.302,24.97,9.792c4.896,0,15.667,0.49,32.314,0.49c3.427,6.854,10.771,11.75,19.094,11.75
	c11.75,0,21.542-9.792,21.542-21.542s-9.792-21.542-21.542-21.542c-10.282,0-19.094,7.344-21.053,17.136
	c-15.178,0-25.459,0-29.866-0.49c-6.365,0-10.282-2.448-17.626-7.344c-7.834-4.896-59.731-42.106-77.357-54.346
	c1.958-3.917,3.427-8.813,3.427-13.709c0-16.157-13.219-28.886-28.886-28.886s-28.886,13.219-28.886,28.886
	S176.659,78.826,192.816,78.826z M192.816,35.251c7.834,0,14.198,6.365,14.198,14.198s-6.365,14.198-14.198,14.198
	s-14.198-6.365-14.198-14.198S184.982,35.251,192.816,35.251z"/>
<path fill="#EE6047" d="M221.702,211.018h43.085c2.938,8.323,10.771,14.198,20.074,14.198c11.75,0,21.542-9.792,21.542-21.542
	c0-11.75-9.792-21.542-21.542-21.542c-9.302,0-17.136,5.875-20.074,14.198h-43.085c-3.427-12.24-14.688-21.542-27.907-21.542
	c-16.157,0-28.886,13.219-28.886,28.886s13.219,28.886,28.886,28.886C207.504,233.05,218.765,223.747,221.702,211.018z
	 M179.597,203.674c0-7.834,6.365-14.198,14.198-14.198s14.198,6.365,14.198,14.198s-6.365,14.198-14.198,14.198
	C185.962,218.362,179.597,211.507,179.597,203.674z"/>
<path fill="#EE6047" d="M228.067,288.374c13.219,0,24.97-9.302,27.907-21.542h8.813c2.938,8.323,10.771,14.198,20.074,14.198
	c11.75,0,21.542-9.792,21.542-21.542c0-11.75-9.792-21.542-21.542-21.542c-9.302,0-17.136,5.875-20.074,14.198h-8.813
	c-3.427-12.24-14.688-21.542-27.907-21.542c-16.157,0-28.886,13.219-28.886,28.886S211.91,288.374,228.067,288.374z M228.067,244.8
	c7.834,0,14.198,6.365,14.198,14.198c0,7.834-6.365,14.198-14.198,14.198s-14.198-6.365-14.198-14.198
	C213.869,251.165,220.234,244.8,228.067,244.8z"/>
<path fill="#EE6047" d="M200.16,400.982v-50.429c0-23.011,7.834-27.907,21.053-27.907c16.157,0,34.272,0,42.106,0.49
	c2.938,8.323,10.771,14.198,20.563,14.198c11.75,0,21.542-9.792,21.542-21.542s-9.792-21.542-21.542-21.542
	c-9.302,0-17.136,5.875-20.074,14.198c-8.323,0-26.438-0.49-42.106-0.49c-36.23,0-36.23,31.824-36.23,42.595v49.939
	c-12.73,2.938-22.522,14.688-22.522,28.397c0,16.157,13.219,28.886,28.886,28.886s28.886-13.219,28.886-28.886
	C221.213,415.67,212.4,404.41,200.16,400.982z M191.837,443.088c-7.834,0-14.198-6.365-14.198-14.198s6.365-14.198,14.198-14.198
	s14.198,6.365,14.198,14.198C206.525,436.723,199.67,443.088,191.837,443.088z"/>
<path fill="#EE6047" d="M599.674,400.493v-49.939c0-10.282,0-42.595-35.741-42.595c-16.157,0-34.272,0-42.106,0.49
	c-2.938-8.323-10.771-14.198-20.074-14.198c-11.75,0-21.542,9.792-21.542,21.542s9.792,21.542,21.542,21.542
	c9.302,0,17.136-5.875,20.563-14.198c8.323,0,26.438-0.49,42.106-0.49c13.219,0,21.053,4.406,21.053,27.907v50.429
	c-12.24,3.427-21.053,14.688-21.053,27.907c0,16.157,13.219,28.886,28.886,28.886s28.886-13.219,28.886-28.886
	C622.195,415.181,612.403,403.43,599.674,400.493z M593.309,443.088c-7.834,0-14.198-6.365-14.198-14.198
	s6.365-14.198,14.198-14.198c7.834,0,14.198,6.365,14.198,14.198S601.142,443.088,593.309,443.088z"/>
<path fill="#EE6047" d="M503.712,225.216c8.323,0,15.667-4.896,19.094-11.75c8.323,0,23.011,0,35.741,0
	c33.293,0,33.293-29.376,33.293-39.168V66.096c11.75-2.938,20.563-13.709,20.563-26.438c0-14.688-12.24-26.928-26.928-26.928
	s-26.928,12.24-26.928,26.928c0,12.24,7.834,22.522,19.094,25.949v108.691c0,20.563-6.365,24.48-18.605,24.48s-25.459,0-33.782,0
	c-1.958-9.792-10.771-17.136-21.053-17.136c-11.75,0-21.542,9.792-21.542,21.542C481.68,215.424,491.472,225.216,503.712,225.216z
	 M572.746,40.147c0-6.854,5.386-12.24,12.24-12.24s12.24,5.386,12.24,12.24s-5.386,12.24-12.24,12.24
	C578.621,52.387,572.746,47.002,572.746,40.147z"/>
<path fill="#EE6047" d="M502.243,282.499c9.302,0,17.136-5.875,20.074-14.198h52.877c3.427,12.24,14.688,21.542,27.907,21.542
	c16.157,0,28.886-13.219,28.886-28.886c0-16.157-13.219-28.886-28.886-28.886c-13.219,0-24.97,9.302-27.907,21.542h-52.387
	c-2.938-8.323-10.771-14.198-20.074-14.198c-11.75,0-21.542,9.792-21.542,21.542S490.493,282.499,502.243,282.499z M603.59,246.758
	c7.834,0,14.198,6.365,14.198,14.198c0,7.834-6.365,14.198-14.198,14.198c-7.834,0-14.198-6.365-14.198-14.198
	C588.902,253.123,595.757,246.758,603.59,246.758z"/>
<path fill="#EE6047" d="M353.894,167.443c-17.136,0-30.845,13.709-30.845,30.845v125.338c0,17.136,13.709,30.845,30.845,30.845
	h79.315c17.136,0,30.845-13.709,30.845-30.845V198.288c0-17.136-13.709-30.845-30.845-30.845H353.894z"/>
<path fill="#EE6047" d="M323.05,89.597c13.219,0,24.48-8.813,27.907-21.053h48.96c5.386,0,10.282,0,12.24,1.958
	c0.979,0.979,2.448,3.427,2.448,9.792c0,8.813,0,20.563-0.49,29.866c-7.834,3.427-13.709,10.771-13.709,20.074
	c0,11.75,9.792,21.542,21.542,21.542s21.542-9.792,21.542-21.542c0-9.792-6.365-17.626-15.178-20.563
	c0-9.302,0.49-20.563,0.49-29.376c0-9.302-1.958-16.157-6.365-20.074c-6.365-6.365-14.688-5.875-22.522-5.875h-48.47
	c-2.938-12.73-14.688-22.032-28.397-22.032c-16.157,0-28.886,13.219-28.886,28.886C294.163,76.378,306.893,89.597,323.05,89.597z
	 M323.05,46.022c7.834,0,14.198,6.365,14.198,14.198s-6.365,14.198-14.198,14.198c-7.834,0-14.198-6.365-14.198-14.198
	C308.851,52.877,315.216,46.022,323.05,46.022z"/>
<path fill="#EE6047" d="M364.666,370.627c-8.813,0-16.646,5.386-19.584,12.73h-54.346c-10.282,0-31.824,0-31.824,28.886
	c0,3.427,0,6.854,0,9.792c-12.73,2.938-22.032,14.688-22.032,27.907c0,16.157,13.219,28.886,28.886,28.886
	c15.667,0,28.886-13.219,28.886-28.886c0-13.219-8.813-24.48-21.053-27.907c0-2.938-0.49-6.365-0.49-9.792
	c0-13.219,4.406-14.198,17.136-14.198h53.366c2.448,9.302,10.771,15.667,20.563,15.667c11.75,0,21.542-9.792,21.542-21.542
	C386.208,380.419,376.416,370.627,364.666,370.627z M279.965,450.432c0,7.834-6.365,14.198-14.198,14.198
	c-7.834,0-14.198-6.365-14.198-14.198c0-7.834,6.365-14.198,14.198-14.198C273.6,436.234,279.965,442.109,279.965,450.432z"/>
<path fill="#EE6047" d="M503.712,422.035c0-2.938,0-6.365,0-9.792c0-28.886-21.542-28.886-31.824-28.886h-29.866
	c-3.427-7.834-10.771-12.73-19.584-12.73c-11.75,0-21.542,9.792-21.542,21.542s9.792,21.542,21.542,21.542
	c9.792,0,18.115-6.854,20.563-15.667h28.886c12.73,0,17.136,0.979,17.136,14.198c0,3.427,0,6.854-0.49,9.792
	c-12.24,3.427-21.053,14.688-21.053,27.907c0,16.157,13.219,28.886,28.886,28.886c16.157,0,28.886-13.219,28.886-28.886
	C525.744,436.723,516.442,424.973,503.712,422.035z M496.858,464.63c-7.834,0-14.198-6.365-14.198-14.198
	c0-7.834,6.365-14.688,14.198-14.688s14.198,6.365,14.198,14.198C511.056,457.776,504.691,464.63,496.858,464.63z"/>
<text transform="matrix(1 0 0 1 144.1989 647.0386)" font-family="'HelveticaNeue-Bold'" font-size="24.48">Created by Michael Wohlwend</text>
<text transform="matrix(1 0 0 1 144.1989 671.5196)" font-family="'HelveticaNeue-Bold'" font-size="24.48">from the Noun Project</text>
</svg>
