<?xml version="1.0" encoding="utf-8"?>
<!-- Generator: Adobe Illustrator 17.0.2, SVG Export Plug-In . SVG Version: 6.00 Build 0)  -->
<!DOCTYPE svg PUBLIC "-//W3C//DTD SVG 1.1//EN" "http://www.w3.org/Graphics/SVG/1.1/DTD/svg11.dtd">
<svg version="1.1"
	 id="Layer_1" xmlns:sodipodi="http://sodipodi.sourceforge.net/DTD/sodipodi-0.dtd" xmlns:inkscape="http://www.inkscape.org/namespaces/inkscape" xmlns:rdf="http://www.w3.org/1999/02/22-rdf-syntax-ns#" xmlns:dc="http://purl.org/dc/elements/1.1/" xmlns:cc="http://creativecommons.org/ns#" xmlns:svg="http://www.w3.org/2000/svg"
	 xmlns="http://www.w3.org/2000/svg" xmlns:xlink="http://www.w3.org/1999/xlink" x="0px" y="0px" width="792px" height="612px"
	 viewBox="0 0 792 612" enable-background="new 0 0 792 612" xml:space="preserve">
<g transform="translate(0,-952.36218)">
	<path fill="#EE6047" d="M235.767,1066.027c-19.666,0-35.607,15.941-35.607,35.607v53.411v53.411v17.803v17.804v17.803v53.411
		v53.411c0,19.673,15.941,35.607,35.607,35.607H396h160.233c19.673,0,35.607-15.934,35.607-35.607v-53.411v-71.214v-35.608v-53.411
		v-53.411c0-19.666-15.934-35.607-35.607-35.607H396H235.767L235.767,1066.027z M253.571,1121.664l89.018,51.186l-89.018,51.185
		v-20.029l53.411-31.156l-53.411-31.157L253.571,1121.664L253.571,1121.664z M342.589,1208.457h89.018v17.803h-89.018V1208.457z"/>
</g>
<text transform="matrix(1 0 0 1 151.1991 644.0383)" font-family="'HelveticaNeue-Bold'" font-size="24.48">Created by Dalpat Prajapati</text>
<text transform="matrix(1 0 0 1 151.1991 668.5193)" font-family="'HelveticaNeue-Bold'" font-size="24.48">from the Noun Project</text>
</svg>
