<?xml version="1.0" encoding="utf-8"?>
<!-- Generator: Adobe Illustrator 17.0.2, SVG Export Plug-In . SVG Version: 6.00 Build 0)  -->
<!DOCTYPE svg PUBLIC "-//W3C//DTD SVG 1.1//EN" "http://www.w3.org/Graphics/SVG/1.1/DTD/svg11.dtd">
<svg version="1.1" id="Layer_1" xmlns="http://www.w3.org/2000/svg" xmlns:xlink="http://www.w3.org/1999/xlink" x="0px" y="0px"
	 width="792px" height="612px" viewBox="0 0 792 612" enable-background="new 0 0 792 612" xml:space="preserve">
<g transform="translate(-473 -260)">
	<g>
		<path fill="#EE6047" d="M1097.48,619.04h-32.64v-81.6c27.173,0,55.57,0,81.6,0v114.24h-16.32V668h16.32h81.6V537.44
			c10.314,0,16.32,0,16.32,0v-65.28c0,0-6.005,0-16.32,0V341.6h-81.6h-16.32v16.32h16.32v114.24c-26.03,0-54.427,0-81.6,0v-81.6
			h32.64c9.025,0,16.32-7.295,16.32-16.32V341.6c0-9.025-7.295-16.32-16.32-16.32h-97.92c-9.025,0-16.32,7.295-16.32,16.32v32.64
			c0,9.025,7.295,16.32,16.32,16.32h23.125l-48.944,81.6c-9.71,0-17.691,0-23.142,0c-48.96,0-130.56-65.28-130.56-65.28h-16.32
			H689.48v-16.32h32.64c9.025,0,16.32-7.295,16.32-16.32V341.6c0-9.025-7.295-16.32-16.32-16.32H624.2
			c-9.025,0-16.32,7.295-16.32,16.32v32.64c0,9.025,7.295,16.32,16.32,16.32h32.64v16.32H624.2v60.253l-16.32,5.027v16.32h-16.32
			v-97.92h-97.92v228.48h97.92v-97.92h16.32v16.32l16.32,5.027v60.253h32.64v16.32H624.2c-9.025,0-16.32,7.295-16.32,16.32V668
			c0,9.025,7.295,16.32,16.32,16.32h97.92c9.025,0,16.32-7.295,16.32-16.32v-32.64c0-9.025-7.295-16.32-16.32-16.32h-32.64v-16.32
			h114.24h16.32c0,0,81.6-65.28,130.56-65.28c5.451,0,13.431,0,23.142,0l48.944,81.6H999.56c-9.025,0-16.32,7.295-16.32,16.32V668
			c0,9.025,7.295,16.32,16.32,16.32h97.92c9.025,0,16.32-7.295,16.32-16.32v-32.64C1113.8,626.335,1106.505,619.04,1097.48,619.04z
			 M624.2,374.24V341.6h97.92v32.64H624.2z M575.24,602.72h-65.28V406.88h65.28V602.72z M722.12,635.36V668H624.2v-32.64H722.12z
			 M1211.72,651.68h-48.96V537.44c18.687,0,35.48,0,48.96,0V651.68z M1162.76,357.92h48.96v114.24c-13.48,0-30.273,0-48.96,0V357.92
			z M999.56,341.6h97.92v32.64h-97.92V341.6z M1032.2,406.407v65.753c-14.247,0-27.581,0-39.445,0L1032.2,406.407z M640.52,423.2
			H767l-126.48,38.923V423.2z M624.2,484.465l179.52-55.945v43.64h-48.96c-9.025,0-16.32,7.295-16.32,16.32v32.64
			c0,9.025,7.295,16.32,16.32,16.32h48.96v43.64L624.2,525.135V484.465z M869,488.48v32.64H754.76v-32.64H869z M640.52,586.4
			v-38.923L767,586.4H640.52z M820.04,582.124V537.44H869c9.025,0,16.32-7.295,16.32-16.32v-32.64c0-9.025-7.295-16.32-16.32-16.32
			h-48.96v-44.684c24.823,18.556,86.512,61.004,130.56,61.004h277.44v32.64H950.6C906.552,521.12,844.863,563.584,820.04,582.124z
			 M1032.2,537.44v65.753l-39.445-65.753C1004.619,537.44,1017.953,537.44,1032.2,537.44z M1097.48,668h-97.92v-32.64h97.92V668z"/>
	</g>
</g>
<text transform="matrix(1 0 0 1 4.3173 734.4007)" font-family="'HelveticaNeue-Bold'" font-size="81.6">Created by Hea Poh Lin</text>
<text transform="matrix(1 0 0 1 4.3173 816.0037)" font-family="'HelveticaNeue-Bold'" font-size="81.6">from the Noun Project</text>
</svg>
